<?xml version="1.0" encoding="utf-8"?>
<!-- Generator: Adobe Illustrator 25.1.0, SVG Export Plug-In . SVG Version: 6.00 Build 0)  -->
<!DOCTYPE svg PUBLIC "-//W3C//DTD SVG 1.1//EN" "http://www.w3.org/Graphics/SVG/1.1/DTD/svg11.dtd" [
	<!ENTITY ns_extend "http://ns.adobe.com/Extensibility/1.0/">
	<!ENTITY ns_ai "http://ns.adobe.com/AdobeIllustrator/10.0/">
	<!ENTITY ns_graphs "http://ns.adobe.com/Graphs/1.0/">
	<!ENTITY ns_vars "http://ns.adobe.com/Variables/1.0/">
	<!ENTITY ns_imrep "http://ns.adobe.com/ImageReplacement/1.0/">
	<!ENTITY ns_sfw "http://ns.adobe.com/SaveForWeb/1.0/">
	<!ENTITY ns_custom "http://ns.adobe.com/GenericCustomNamespace/1.0/">
	<!ENTITY ns_adobe_xpath "http://ns.adobe.com/XPath/1.0/">
]>
<svg version="1.1" id="communications-tower" xmlns:x="&ns_extend;" xmlns:i="&ns_ai;" xmlns:graph="&ns_graphs;"
	 xmlns="http://www.w3.org/2000/svg" xmlns:xlink="http://www.w3.org/1999/xlink" x="0px" y="0px" viewBox="0 0 15 15"
	 style="enable-background:new 0 0 15 15;" xml:space="preserve">
<style type="text/css">
	.st0{fill:#FF7F00;}
	.st1{fill:#FFFFFF;}
</style>
<metadata>
	<map_document></map_document>
	<sfw  xmlns="&ns_sfw;">
		<slices></slices>
		<sliceSourceBounds  bottomLeftOrigin="true" height="15" width="15" x="0" y="0"></sliceSourceBounds>
	</sfw>
</metadata>
<rect class="st0" width="15" height="15"/>
<path class="st1" d="M11.9,6.4l-0.4-0.3c1-1.5,1.1-3.3,0.3-4.9l-0.1-0.2l0.4-0.2L12.2,1C13.1,2.8,12.9,4.8,11.9,6.4z M13,13.6V14H2
	v-0.4h2.5L6,6.4C6.1,6.2,6.3,6,6.5,6h0.7V4.6C6.7,4.5,6.4,4,6.4,3.5c0-0.6,0.5-1.2,1.2-1.2s1.2,0.5,1.2,1.2c0,0,0,0,0,0
	c0,0.5-0.4,1-0.9,1.1V6h0.7C8.7,6,8.9,6.2,9,6.4l1.5,7.2L13,13.6z M8.5,8.8H6.6l-0.3,1.5h2.5L8.5,8.8z M6.1,10.7l-0.3,1.5h3.4
	l-0.3-1.5H6.1z M6.9,7L6.7,8.3h1.7L8.1,7H6.9z M5.5,13.6h4l-0.2-0.8H5.7L5.5,13.6z M5.2,5C4.6,4.1,4.6,2.9,5.2,2L4.8,1.7
	c-0.7,1.1-0.7,2.5,0,3.6L5.2,5z M10.8,3.5c0-0.6-0.2-1.3-0.5-1.8L9.8,2c0.6,0.9,0.6,2.1,0,3l0.4,0.3C10.6,4.8,10.8,4.1,10.8,3.5z
	 M3.5,6.1c-1-1.5-1-3.4-0.2-5L2.9,0.9C2,2.6,2,4.7,3.1,6.4L3.5,6.1z"/>
</svg>
