<?xml version="1.0" encoding="utf-8"?>
<!-- Generator: Adobe Illustrator 25.1.0, SVG Export Plug-In . SVG Version: 6.00 Build 0)  -->
<!DOCTYPE svg PUBLIC "-//W3C//DTD SVG 1.1//EN" "http://www.w3.org/Graphics/SVG/1.1/DTD/svg11.dtd" [
	<!ENTITY ns_extend "http://ns.adobe.com/Extensibility/1.0/">
	<!ENTITY ns_ai "http://ns.adobe.com/AdobeIllustrator/10.0/">
	<!ENTITY ns_graphs "http://ns.adobe.com/Graphs/1.0/">
	<!ENTITY ns_vars "http://ns.adobe.com/Variables/1.0/">
	<!ENTITY ns_imrep "http://ns.adobe.com/ImageReplacement/1.0/">
	<!ENTITY ns_sfw "http://ns.adobe.com/SaveForWeb/1.0/">
	<!ENTITY ns_custom "http://ns.adobe.com/GenericCustomNamespace/1.0/">
	<!ENTITY ns_adobe_xpath "http://ns.adobe.com/XPath/1.0/">
]>
<svg version="1.1" id="communications-tower" xmlns:x="&ns_extend;" xmlns:i="&ns_ai;" xmlns:graph="&ns_graphs;"
	 xmlns="http://www.w3.org/2000/svg" xmlns:xlink="http://www.w3.org/1999/xlink" x="0px" y="0px" viewBox="0 0 15 15"
	 style="enable-background:new 0 0 15 15;" xml:space="preserve">
<style type="text/css">
	.st0{display:none;fill:#FF7F00;}
	.st1{fill:#FF7F00;}
	.st2{fill:#FFFFFF;}
</style>
<metadata>
	<map_document></map_document>
	<sfw  xmlns="&ns_sfw;">
		<slices></slices>
		<sliceSourceBounds  bottomLeftOrigin="true" height="15.1" width="15" x="0" y="0"></sliceSourceBounds>
	</sfw>
</metadata>
<circle class="st0" cx="7.5" cy="7.5" r="7.5"/>
<polygon class="st1" points="7.5,15 0,15 3.7,7.5 7.5,-0.1 11.2,7.5 15,15 "/>
<path class="st2" d="M11.9,5.9l-0.4-0.3c1-1.5,1.1-3.3,0.3-4.9l-0.1-0.2l0.4-0.2l0.1,0.2C13.1,2.2,12.9,4.3,11.9,5.9z M13,13v0.4H2
	V13h2.5L6,5.9c0-0.2,0.3-0.4,0.5-0.4h0.7V4.1C6.7,4,6.4,3.5,6.4,3c0-0.6,0.5-1.2,1.2-1.2S8.7,2.3,8.7,3c0,0,0,0,0,0
	c0,0.5-0.4,1-0.9,1.1v1.4h0.7c0.2,0,0.4,0.2,0.5,0.4l1.5,7.2L13,13z M8.5,8.2H6.6L6.2,9.7h2.5L8.5,8.2z M6.1,10.2l-0.3,1.5h3.4
	l-0.3-1.5H6.1z M6.9,6.5L6.7,7.7h1.7L8.1,6.5H6.9z M5.5,13h4l-0.2-0.8H5.7L5.5,13z M5.2,4.5c-0.6-0.9-0.6-2.1,0-3.1L4.8,1.2
	c-0.7,1.1-0.7,2.5,0,3.6L5.2,4.5z M10.8,3c0-0.6-0.2-1.3-0.5-1.8L9.8,1.5c0.6,0.9,0.6,2.1,0,3l0.4,0.3C10.6,4.3,10.8,3.6,10.8,3z
	 M3.5,5.6c-1-1.5-1-3.4-0.2-5L2.9,0.4C2,2.1,2,4.2,3.1,5.9L3.5,5.6z"/>
</svg>
