<?xml version="1.0" encoding="utf-8"?>
<!-- Generator: Adobe Illustrator 25.1.0, SVG Export Plug-In . SVG Version: 6.00 Build 0)  -->
<!DOCTYPE svg PUBLIC "-//W3C//DTD SVG 1.1//EN" "http://www.w3.org/Graphics/SVG/1.1/DTD/svg11.dtd" [
	<!ENTITY ns_extend "http://ns.adobe.com/Extensibility/1.0/">
	<!ENTITY ns_ai "http://ns.adobe.com/AdobeIllustrator/10.0/">
	<!ENTITY ns_graphs "http://ns.adobe.com/Graphs/1.0/">
	<!ENTITY ns_vars "http://ns.adobe.com/Variables/1.0/">
	<!ENTITY ns_imrep "http://ns.adobe.com/ImageReplacement/1.0/">
	<!ENTITY ns_sfw "http://ns.adobe.com/SaveForWeb/1.0/">
	<!ENTITY ns_custom "http://ns.adobe.com/GenericCustomNamespace/1.0/">
	<!ENTITY ns_adobe_xpath "http://ns.adobe.com/XPath/1.0/">
]>
<svg version="1.1" id="communications-tower-11" xmlns:x="&ns_extend;" xmlns:i="&ns_ai;" xmlns:graph="&ns_graphs;"
	 xmlns="http://www.w3.org/2000/svg" xmlns:xlink="http://www.w3.org/1999/xlink" x="0px" y="0px" viewBox="0 0 11 11"
	 enable-background="new 0 0 11 11" xml:space="preserve">
<metadata>
	<map_document></map_document>
	<sfw  xmlns="&ns_sfw;">
		<slices></slices>
		<sliceSourceBounds  bottomLeftOrigin="true" height="10.6" width="10.6" x="0.2" y="0.2"></sliceSourceBounds>
	</sfw>
</metadata>
<circle fill="#FFE34B" cx="5.5" cy="5.5" r="5.3"/>
<g id="communications-tower-11_1_">
	<path d="M7.4,4.1H7V2.2h0.3L7.4,4.1L7.4,4.1z M3.9,2.2H3.6V4h0.3C3.9,4,3.9,2.2,3.9,2.2z M9.2,2H8.8v2.9h0.3L9.2,2L9.2,2z M2.2,2
		H1.8v2.9h0.3V2H2.2z M5.7,4.6h0.4l0,0c0.1,0,0.3,0.1,0.3,0.2l0.9,4.3h1.2v0.5h-6V9.2h1.3l0.9-4.3c0-0.1,0.2-0.2,0.3-0.2h0.4V3.5
		l0,0C5,3.4,4.7,3.1,4.7,2.7s0.4-0.8,0.8-0.8s0.8,0.4,0.8,0.8S6.1,3.4,5.7,3.5L5.7,4.6z M4.9,6.5h1.2L5.9,5.2H5.2L4.9,6.5z M4.5,8.2
		h2L6.2,6.8H4.8L4.5,8.2z M6.7,9.2L6.5,8.5h-2L4.3,9.2H6.7z"/>
</g>
</svg>
