<?xml version="1.0" encoding="utf-8"?>
<!-- Generator: Adobe Illustrator 25.1.0, SVG Export Plug-In . SVG Version: 6.00 Build 0)  -->
<svg version="1.1" id="home-11" xmlns="http://www.w3.org/2000/svg" xmlns:xlink="http://www.w3.org/1999/xlink" x="0px" y="0px"
	 viewBox="0 0 11 11" style="enable-background:new 0 0 11 11;" xml:space="preserve">
<style type="text/css">
	.st0{fill:#7CCAFF;}
</style>
<path class="st0" d="M10,4.8C10,4.9,9.9,5,9.8,5H1.2C1.1,5,1,4.9,1,4.8s0-0.1,0.1-0.2l4.2-3.5l0,0C5.4,1,5.6,1,5.7,1.1L8,3V1.5
	C8,1.2,8.2,1,8.5,1S9,1.2,9,1.5v2.3l0.9,0.8C10,4.6,10,4.7,10,4.8z M2,9.8C2,9.9,2.1,10,2.2,10l0,0H5V8h1v2h2.8C8.9,10,9,9.9,9,9.8
	l0,0l0,0V6H2V9.8z"/>
</svg>
